<svg version="1.1" id="Layer_1" xmlns="http://www.w3.org/2000/svg" xmlns:xlink="http://www.w3.org/1999/xlink" x="0px" y="0px"
	 width="100%" viewBox="0 0 448 304" enable-background="new 0 0 448 304" xml:space="preserve">
<path fill="#000000" opacity="1.000000" stroke="none" 
	d="
M141.222961,239.065033 
	C104.835609,228.462143 82.412682,205.077896 74.265312,168.411987 
	C72.127846,158.792664 71.594696,148.942398 73.795494,139.194717 
	C76.131973,128.846085 83.427177,121.975044 91.449486,122.238861 
	C99.313828,122.497482 105.933495,129.540207 108.359474,139.532471 
	C109.874252,145.771545 109.195412,152.110321 110.064636,158.390396 
	C113.577896,183.773483 135.518127,203.813889 161.282776,204.665771 
	C187.314514,205.526505 211.002090,186.748764 215.745056,161.584930 
	C217.504654,152.249390 216.815628,142.719955 218.559402,133.341354 
	C225.303192,97.070778 255.716492,67.645813 292.177399,61.549740 
	C344.251831,52.843185 388.451660,88.960770 397.052368,134.724106 
	C406.240784,183.614639 371.964478,233.025742 322.646423,240.342972 
	C291.827759,244.915466 264.999451,236.564545 242.731506,214.433914 
	C237.216705,208.953125 233.833496,208.822388 228.721970,213.889816 
	C204.274246,238.126572 175.090332,246.015533 141.222961,239.065033 
M345.010834,112.483353 
	C331.822266,100.397850 316.515350,95.170021 298.664551,98.147545 
	C268.258057,103.219391 248.911865,132.141281 255.322327,162.953613 
	C261.238770,191.391357 291.473114,210.074478 320.192780,203.034836 
	C359.991974,193.279434 375.820343,143.800766 345.010834,112.483353 
z"/>
<path fill="#000000" opacity="1.000000" stroke="none" 
	d="
M118.920486,51.142799 
	C135.335175,73.243973 125.356651,102.784325 99.454308,108.590103 
	C85.155853,111.794983 72.498749,107.753777 63.429585,95.910065 
	C54.210541,83.870605 52.889194,70.395142 60.096554,57.003155 
	C67.201859,43.800808 78.841637,37.751663 93.945534,38.556637 
	C104.000618,39.092529 112.107407,43.415451 118.920486,51.142799 
M88.989784,89.716599 
	C97.860298,90.006645 103.577080,86.765686 106.278618,79.915215 
	C108.832344,73.439537 107.048592,66.118187 101.871162,61.825104 
	C96.941147,57.737167 89.447464,56.747524 84.083099,59.726757 
	C77.985268,63.113331 75.084358,68.507240 75.417038,75.410889 
	C75.742119,82.157135 80.465523,87.210281 88.989784,89.716599 
z"/>
<path fill="#000000" opacity="1.000000" stroke="none" 
	d="
M155.567871,161.397202 
	C148.318497,150.171112 152.873566,137.548264 164.208878,136.447403 
	C166.759155,136.199722 169.218002,136.552994 171.434875,137.867035 
	C172.870193,138.717834 174.452316,139.708069 173.439819,141.791061 
	C172.538788,143.644714 170.906387,143.839310 169.179535,143.135757 
	C165.751373,141.739075 162.546326,141.731506 160.261093,145.013885 
	C157.762222,148.603134 157.646042,152.503250 159.820297,156.330627 
	C161.160263,158.689423 163.228806,159.919754 166.038712,159.661713 
	C167.311310,159.544846 168.300980,159.059326 168.572327,157.695419 
	C168.817139,156.464966 168.665436,155.238083 167.401718,154.707077 
	C165.504944,153.910034 163.155121,153.225800 164.507111,150.612732 
	C165.807632,148.099106 168.589264,148.923965 170.855118,148.912170 
	C173.372375,148.899094 175.224503,150.038681 175.074371,152.726105 
	C174.854874,156.655380 176.848877,161.269562 172.075104,164.009583 
	C167.675705,166.534714 160.595963,165.517075 155.567871,161.397202 
z"/>
<path fill="#000000" opacity="1.000000" stroke="none" 
	d="
M190.988846,136.767731 
	C194.208679,137.181122 194.100815,139.345688 194.129684,141.337585 
	C194.189957,145.497192 194.325272,149.665543 194.128540,153.816025 
	C193.960526,157.360855 195.087524,159.221878 198.903046,158.865570 
	C200.047241,158.758728 201.240387,158.877945 202.378754,159.077835 
	C204.008041,159.363922 205.165390,160.246017 205.012833,162.102203 
	C204.873657,163.795471 203.615829,164.272934 202.193237,164.286453 
	C198.533310,164.321274 194.872437,164.284592 191.212204,164.248291 
	C188.947601,164.225830 187.865433,162.922424 187.847427,160.779800 
	C187.790054,153.958038 187.777374,147.135681 187.797913,140.313690 
	C187.803375,138.498123 188.455582,137.045853 190.988846,136.767731 
z"/>
<path fill="#000000" opacity="1.000000" stroke="none" 
	d="
M285.076660,145.442902 
	C284.091888,147.764603 283.380890,149.303589 285.021637,151.668930 
	C288.685699,156.951096 285.984711,162.744202 279.669220,164.204300 
	C279.507477,164.241684 279.339355,164.250656 279.176270,164.283066 
	C266.656281,166.770721 265.337921,165.684311 265.551331,153.170029 
	C265.622284,149.008041 265.653320,144.844070 265.611237,140.681931 
	C265.584381,138.023788 266.647705,136.624496 269.439667,136.699783 
	C272.101807,136.771576 274.778137,136.575714 277.428467,136.768921 
	C282.822723,137.162216 284.859650,139.440033 285.076660,145.442902 
M279.233490,153.915909 
	C276.592468,152.564804 273.763092,150.737534 271.681030,154.442413 
	C270.933563,155.772491 270.951019,157.858337 272.454620,159.002014 
	C274.042908,160.210129 275.933258,159.737640 277.633789,158.990921 
	C279.640442,158.109802 281.061096,156.867157 279.233490,153.915909 
M272.595703,142.216873 
	C270.881134,144.812042 270.729584,147.026794 274.461365,147.507568 
	C276.340088,147.749619 278.542511,146.834152 278.417542,144.687881 
	C278.234802,141.549042 275.568268,141.653305 272.595703,142.216873 
z"/>
<path fill="#000000" opacity="1.000000" stroke="none" 
	d="
M316.764801,143.346008 
	C318.578918,148.756470 320.338593,153.767990 321.867340,158.848984 
	C322.461273,160.823105 323.356049,163.341721 320.377258,164.285782 
	C317.532257,165.187454 316.484558,163.010406 315.939575,160.836166 
	C315.231812,158.012650 313.461761,157.289108 310.796051,157.321045 
	C308.346405,157.350372 306.650604,157.907318 306.047668,160.596222 
	C305.809875,161.656647 305.052490,162.708862 304.272400,163.513412 
	C303.168121,164.652298 301.675354,165.124176 300.183777,164.276749 
	C298.634857,163.396744 299.230804,161.995819 299.643433,160.737213 
	C301.865265,153.960175 304.117371,147.193054 306.330841,140.413284 
	C307.064819,138.165192 308.243073,136.686798 310.904938,136.668915 
	C313.473785,136.651672 314.950867,137.769714 315.650421,140.152267 
	C315.930298,141.105652 316.293030,142.034714 316.764801,143.346008 
M312.592987,149.755402 
	C312.106232,148.337540 311.619446,146.919662 310.836029,144.637726 
	C310.160980,147.120895 309.703766,148.534729 309.408325,149.981613 
	C309.203674,150.983856 309.295074,152.089203 310.538086,152.373810 
	C312.039703,152.717621 312.651947,151.851669 312.592987,149.755402 
z"/>
<path fill="#000000" opacity="1.000000" stroke="none" 
	d="
M341.215881,138.498138 
	C341.349365,144.051651 341.523010,149.220261 341.328949,154.375031 
	C341.196014,157.906326 342.654419,159.245865 346.035919,159.009659 
	C347.356506,158.917419 348.702881,159.018402 350.024048,159.158340 
	C351.446106,159.308975 352.683960,159.930023 352.772186,161.537918 
	C352.852051,162.993729 352.149872,164.243210 350.627289,164.491791 
	C346.340210,165.191711 342.010010,165.401917 337.733521,164.506470 
	C335.523376,164.043686 335.139191,162.084595 335.129822,160.184860 
	C335.097778,153.688751 334.976807,147.186127 335.217682,140.698166 
	C335.369751,136.603073 336.991058,136.020660 341.215881,138.498138 
z"/>
</svg>